<svg xmlns="http://www.w3.org/2000/svg" style="display: none;">
  <symbol id='icon-burger-menu'  viewBox="0 0 32 32">
<path d="M4 16H28" stroke="currentColor" stroke-width="3" stroke-linecap="round" stroke-linejoin="round"/>
<path d="M4 8H28" stroke="currentColor" stroke-width="3" stroke-linecap="round" stroke-linejoin="round"/>
<path d="M4 24H28" stroke="currentColor" stroke-width="3" stroke-linecap="round" stroke-linejoin="round"/>
</symbol>
<symbol id='icon-logo-mob'  viewBox="0 0 17 17">
<path fill="currentColor" fill-rule="evenodd" clip-rule="evenodd" d="M8.49554 4.01679C7.13598 2.41155 4.86882 1.97975 3.16539 3.44966C1.46195 4.91958 1.22213 7.3772 2.55985 9.11567C3.41666 10.2292 5.61099 12.294 7.07795 13.6347C7.56545 14.0803 7.80919 14.3031 8.10115 14.3924C8.35213 14.4692 8.63894 14.4692 8.88992 14.3924C9.18188 14.3031 9.42563 14.0803 9.91312 13.6347C11.3801 12.294 13.5744 10.2292 14.4312 9.11567C15.7689 7.3772 15.5584 4.90411 13.8257 3.44966C12.093 1.99521 9.8551 2.41155 8.49554 4.01679Z" />
</symbol>
<symbol id="icon-close-white" viewBox="0 0 32 32" fill="none">
    <path d="M24 8L8 24"  stroke-width="3" stroke-linecap="round" stroke-linejoin="round" />
  <path d="M8 8L24 24"  stroke-width="3" stroke-linecap="round" stroke-linejoin="round" />
    </symbol>
    <symbol id="close-eye" fill="none" xmlns="http://www.w3.org/2000/svg">
  <g clip-path="url(#clip0_55848_2014)">
    <path d="M16.4463 16.445C14.8793 17.6394 12.9713 18.3011 11.0013 18.3333C4.58464 18.3333 0.917969 11 0.917969 11C2.0582 8.87507 3.63968 7.01855 5.5563 5.555M9.0763 3.88666C9.70727 3.73897 10.3533 3.66514 11.0013 3.66666C17.418 3.66666 21.0846 11 21.0846 11C20.5282 12.041 19.8646 13.021 19.1046 13.9242M12.9446 12.9433C12.6929 13.2135 12.3893 13.4302 12.0519 13.5805C11.7146 13.7308 11.3505 13.8117 10.9812 13.8182C10.612 13.8247 10.2452 13.7568 9.90278 13.6184C9.56036 13.4801 9.2493 13.2743 8.98816 13.0131C8.72703 12.752 8.52116 12.4409 8.38285 12.0985C8.24454 11.7561 8.17662 11.3893 8.18313 11.0201C8.18965 10.6508 8.27047 10.2867 8.42077 9.94936C8.57108 9.61203 8.78778 9.30843 9.05797 9.05666" stroke="#F6B83D" stroke-width="2" stroke-linecap="round" stroke-linejoin="round" />
    <path d="M0.917969 0.916672L21.0846 21.0833" stroke="#F6B83D" stroke-width="2" stroke-linecap="round" stroke-linejoin="round" />
  </g>
</symbol>
<symbol id="open-eye" fill="none" xmlns="http://www.w3.org/2000/svg">
  <g clip-path="url(#clip0_55848_2020)">
    <path d="M0.916016 11C0.916016 11 4.58268 3.66667 10.9993 3.66667C17.416 3.66667 21.0827 11 21.0827 11C21.0827 11 17.416 18.3333 10.9993 18.3333C4.58268 18.3333 0.916016 11 0.916016 11Z" stroke="#F6B83D" stroke-width="2" stroke-linecap="round" stroke-linejoin="round" />
    <path d="M11 13.75C12.5188 13.75 13.75 12.5188 13.75 11C13.75 9.48122 12.5188 8.25 11 8.25C9.48122 8.25 8.25 9.48122 8.25 11C8.25 12.5188 9.48122 13.75 11 13.75Z" stroke="#F6B83D" stroke-width="2" stroke-linecap="round" stroke-linejoin="round" />
  </g>
</symbol>
<symbol id="red-false" fill="none" xmlns="http://www.w3.org/2000/svg">
  <path d="M17.4163 4.58331L4.58301 17.4166M4.58305 4.58331L17.4163 17.4166" stroke="#EF2447" stroke-width="2" stroke-linecap="round" stroke-linejoin="round" />
</symbol>
<symbol id="green-success" fill="none" xmlns="http://www.w3.org/2000/svg">
  <path d="M18.3337 6.41667L8.25042 16.5L3.66699 11.9167" stroke="#08AA83" stroke-width="1.5" stroke-linecap="round" stroke-linejoin="round" />
</symbol>
<symbol id="arrow-left" fill="none" xmlns="http://www.w3.org/2000/svg">
  <path d="M8.83387 10.5917C8.75576 10.5142 8.69377 10.4221 8.65146 10.3205C8.60915 10.219 8.58737 10.11 8.58737 10C8.58737 9.89001 8.60915 9.78109 8.65146 9.67954C8.69377 9.57799 8.75576 9.48582 8.83387 9.40835L12.6589 5.59168C12.737 5.51421 12.799 5.42204 12.8413 5.32049C12.8836 5.21894 12.9054 5.11002 12.9054 5.00001C12.9054 4.89 12.8836 4.78108 12.8413 4.67953C12.799 4.57798 12.737 4.48581 12.6589 4.40834C12.5027 4.25313 12.2915 4.16602 12.0714 4.16602C11.8512 4.16602 11.64 4.25313 11.4839 4.40834L7.65887 8.23335C7.1907 8.7021 6.92773 9.33752 6.92773 10C6.92773 10.6625 7.1907 11.2979 7.65887 11.7667L11.4839 15.5917C11.6391 15.7457 11.8486 15.8324 12.0672 15.8334C12.1769 15.834 12.2856 15.813 12.3871 15.7715C12.4887 15.73 12.581 15.6689 12.6589 15.5917C12.737 15.5142 12.799 15.4221 12.8413 15.3205C12.8836 15.219 12.9054 15.11 12.9054 15C12.9054 14.89 12.8836 14.7811 12.8413 14.6795C12.799 14.578 12.737 14.4858 12.6589 14.4084L8.83387 10.5917Z" fill="#262626" fill-opacity="0.5" />
</symbol>
<symbol id="arrow-right" fill="none" xmlns="http://www.w3.org/2000/svg">
  <path d="M11.1661 10.5917C11.2442 10.5142 11.3062 10.422 11.3485 10.3205C11.3908 10.2189 11.4126 10.11 11.4126 10C11.4126 9.89001 11.3908 9.78108 11.3485 9.67953C11.3062 9.57798 11.2442 9.48582 11.1661 9.40835L7.34113 5.59168C7.26302 5.51421 7.20103 5.42204 7.15872 5.32049C7.11641 5.21894 7.09463 5.11002 7.09463 5.00001C7.09463 4.89 7.11641 4.78108 7.15872 4.67953C7.20103 4.57798 7.26302 4.48581 7.34113 4.40834C7.49727 4.25313 7.70848 4.16602 7.92863 4.16602C8.14879 4.16602 8.36 4.25313 8.51613 4.40834L12.3411 8.23335C12.8093 8.7021 13.0723 9.33751 13.0723 10C13.0723 10.6625 12.8093 11.2979 12.3411 11.7667L8.51613 15.5917C8.36091 15.7456 8.15142 15.8324 7.9328 15.8334C7.82313 15.834 7.71441 15.813 7.61288 15.7715C7.51134 15.73 7.419 15.6689 7.34113 15.5917C7.26302 15.5142 7.20103 15.4221 7.15872 15.3205C7.11641 15.219 7.09463 15.11 7.09463 15C7.09463 14.89 7.11641 14.7811 7.15872 14.6795C7.20103 14.578 7.26302 14.4858 7.34113 14.4084L11.1661 10.5917Z" fill="#262626" />
</symbol>
<symbol id="loupe" fill="none" xmlns="http://www.w3.org/2000/svg">
  <path d="M8.25 14.25C11.5637 14.25 14.25 11.5637 14.25 8.25C14.25 4.93629 11.5637 2.25 8.25 2.25C4.93629 2.25 2.25 4.93629 2.25 8.25C2.25 11.5637 4.93629 14.25 8.25 14.25Z" stroke="#262626" stroke-width="1.5" stroke-linecap="round" stroke-linejoin="round" />
  <path d="M15.7508 15.75L12.4883 12.4875" stroke="#262626" stroke-width="1.5" stroke-linecap="round" stroke-linejoin="round" />
</symbol>
<svg id="user-avatar" fill="none" xmlns="http://www.w3.org/2000/svg">
  <path d="M19.9991 25C14.7156 25 10.0171 27.5511 7.02576 31.5099C6.38194 32.362 6.06003 32.788 6.07056 33.3638C6.0787 33.8086 6.35803 34.3698 6.70804 34.6445C7.16108 35 7.78888 35 9.04449 35H30.9537C32.2093 35 32.8371 35 33.2902 34.6445C33.6402 34.3698 33.9195 33.8086 33.9276 33.3638C33.9382 32.788 33.6163 32.362 32.9724 31.5099C29.9811 27.5511 25.2826 25 19.9991 25Z" fill="#F6B83D" stroke="#F6B83D" stroke-width="2" stroke-linecap="round" stroke-linejoin="round" />
  <path d="M20 20C24.1421 20 27.5 16.6421 27.5 12.5C27.5 8.35786 24.1421 5 20 5C15.8579 5 12.5 8.35786 12.5 12.5C12.5 16.6421 15.8579 20 20 20Z" fill="#F6B83D" stroke="#F6B83D" stroke-width="2" stroke-linecap="round" stroke-linejoin="round" />
</svg>
<symbol id="star" fill="currentColor" xmlns="http://www.w3.org/2000/svg">
<path d="M6.20021 4.69703L8 1.28579L9.79979 4.69703C9.95896 4.9987 10.2491 5.20947 10.5851 5.26762L14.3856 5.92519L11.6975 8.69103C11.4598 8.93563 11.3489 9.27666 11.3975 9.61427L11.9465 13.4319L8.48537 11.7301C8.17929 11.5795 7.82071 11.5795 7.51463 11.7301L4.05348 13.4319L4.6025 9.61427C4.65105 9.27666 4.54024 8.93563 4.30252 8.69103L1.6144 5.92519L5.41486 5.26762C5.75095 5.20947 6.04104 4.9987 6.20021 4.69703Z"  stroke-width="1.2"/>
</symbol>
<symbol id="favorite-heart" fill="currentColor" xmlns="http://www.w3.org/2000/svg">
  <path d="M15.6286 3.4574C15.2456 3.07416 14.7907 2.77014 14.2901 2.56272C13.7895 2.3553 13.253 2.24854 12.7111 2.24854C12.1693 2.24854 11.6327 2.3553 11.1321 2.56272C10.6315 2.77014 10.1767 3.07416 9.79362 3.4574L8.99862 4.2524L8.20362 3.4574C7.42985 2.68364 6.3804 2.24894 5.28612 2.24894C4.19185 2.24894 3.14239 2.68364 2.36862 3.4574C1.59486 4.23117 1.16016 5.28063 1.16016 6.3749C1.16016 7.46918 1.59486 8.51864 2.36862 9.2924L3.16362 10.0874L8.99862 15.9224L14.8336 10.0874L15.6286 9.2924C16.0119 8.90934 16.3159 8.45451 16.5233 7.95392C16.7307 7.45333 16.8375 6.91677 16.8375 6.3749C16.8375 5.83304 16.7307 5.29648 16.5233 4.79589C16.3159 4.29529 16.0119 3.84047 15.6286 3.4574Z"  stroke-width="1.5" stroke-linecap="round" stroke-linejoin="round" />
</symbol>
<symbol id="user-card" fill="none" xmlns="http://www.w3.org/2000/svg">
  <path d="M9.00038 11.25C6.62282 11.25 4.50847 12.398 3.16237 14.1795C2.87265 14.5629 2.7278 14.7546 2.73253 15.0137C2.7362 15.2139 2.8619 15.4664 3.0194 15.59C3.22327 15.75 3.50578 15.75 4.0708 15.75H13.93C14.495 15.75 14.7775 15.75 14.9814 15.59C15.1389 15.4664 15.2646 15.2139 15.2682 15.0137C15.273 14.7546 15.1281 14.5629 14.8384 14.1795C13.4923 12.398 11.3779 11.25 9.00038 11.25Z" fill="currentColor" stroke="currentColor" stroke-width="2" stroke-linecap="round" stroke-linejoin="round" />
  <path d="M9 9C10.864 9 12.375 7.48896 12.375 5.625C12.375 3.76104 10.864 2.25 9 2.25C7.13604 2.25 5.625 3.76104 5.625 5.625C5.625 7.48896 7.13604 9 9 9Z" fill="currentColor" stroke="currentColor" stroke-width="2" stroke-linecap="round" stroke-linejoin="round" />
</symbol>
<symbol id="edit-card" fill="none" xmlns="http://www.w3.org/2000/svg">
  <path d="M12.75 2.25C12.947 2.05301 13.1808 1.89676 13.4382 1.79015C13.6956 1.68355 13.9714 1.62868 14.25 1.62868C14.5286 1.62868 14.8044 1.68355 15.0618 1.79015C15.3192 1.89676 15.553 2.05301 15.75 2.25C15.947 2.44698 16.1032 2.68083 16.2098 2.9382C16.3164 3.19557 16.3713 3.47142 16.3713 3.75C16.3713 4.02857 16.3164 4.30442 16.2098 4.56179C16.1032 4.81916 15.947 5.05301 15.75 5.25L5.625 15.375L1.5 16.5L2.625 12.375L12.75 2.25Z" stroke="#F6B83D" stroke-width="1.5" stroke-linecap="round" stroke-linejoin="round" />
</symbol>
</svg>