<svg xmlns="http://www.w3.org/2000/svg" style="display: none;">
  <symbol id='icon-burger-menu'  viewBox="0 0 32 32">
<path d="M4 16H28" stroke="currentColor" stroke-width="3" stroke-linecap="round" stroke-linejoin="round"/>
<path d="M4 8H28" stroke="currentColor" stroke-width="3" stroke-linecap="round" stroke-linejoin="round"/>
<path d="M4 24H28" stroke="currentColor" stroke-width="3" stroke-linecap="round" stroke-linejoin="round"/>
</symbol>
<symbol id='icon-logo-mob'  viewBox="0 0 17 17">
<path fill-rule="evenodd" clip-rule="evenodd" d="M8.49554 4.01679C7.13598 2.41155 4.86882 1.97975 3.16539 3.44966C1.46195 4.91958 1.22213 7.3772 2.55985 9.11567C3.41666 10.2292 5.61099 12.294 7.07795 13.6347C7.56545 14.0803 7.80919 14.3031 8.10115 14.3924C8.35213 14.4692 8.63894 14.4692 8.88992 14.3924C9.18188 14.3031 9.42563 14.0803 9.91312 13.6347C11.3801 12.294 13.5744 10.2292 14.4312 9.11567C15.7689 7.3772 15.5584 4.90411 13.8257 3.44966C12.093 1.99521 9.8551 2.41155 8.49554 4.01679Z" fill="#F6B83D" />
</symbol>
<symbol id="icon-close-white" viewBox="0 0 32 32" fill="none">
    <path d="M24 8L8 24" stroke="white" stroke-width="3" stroke-linecap="round" stroke-linejoin="round" />
  <path d="M8 8L24 24" stroke="white" stroke-width="3" stroke-linecap="round" stroke-linejoin="round" />
    </symbol>
    <symbol id="close-eye" fill="none" xmlns="http://www.w3.org/2000/svg">
  <g clip-path="url(#clip0_55848_2014)">
    <path d="M16.4463 16.445C14.8793 17.6394 12.9713 18.3011 11.0013 18.3333C4.58464 18.3333 0.917969 11 0.917969 11C2.0582 8.87507 3.63968 7.01855 5.5563 5.555M9.0763 3.88666C9.70727 3.73897 10.3533 3.66514 11.0013 3.66666C17.418 3.66666 21.0846 11 21.0846 11C20.5282 12.041 19.8646 13.021 19.1046 13.9242M12.9446 12.9433C12.6929 13.2135 12.3893 13.4302 12.0519 13.5805C11.7146 13.7308 11.3505 13.8117 10.9812 13.8182C10.612 13.8247 10.2452 13.7568 9.90278 13.6184C9.56036 13.4801 9.2493 13.2743 8.98816 13.0131C8.72703 12.752 8.52116 12.4409 8.38285 12.0985C8.24454 11.7561 8.17662 11.3893 8.18313 11.0201C8.18965 10.6508 8.27047 10.2867 8.42077 9.94936C8.57108 9.61203 8.78778 9.30843 9.05797 9.05666" stroke="#F6B83D" stroke-width="2" stroke-linecap="round" stroke-linejoin="round" />
    <path d="M0.917969 0.916672L21.0846 21.0833" stroke="#F6B83D" stroke-width="2" stroke-linecap="round" stroke-linejoin="round" />
  </g>
</symbol>
<symbol id="open-eye" fill="none" xmlns="http://www.w3.org/2000/svg">
  <g clip-path="url(#clip0_55848_2020)">
    <path d="M0.916016 11C0.916016 11 4.58268 3.66667 10.9993 3.66667C17.416 3.66667 21.0827 11 21.0827 11C21.0827 11 17.416 18.3333 10.9993 18.3333C4.58268 18.3333 0.916016 11 0.916016 11Z" stroke="#F6B83D" stroke-width="2" stroke-linecap="round" stroke-linejoin="round" />
    <path d="M11 13.75C12.5188 13.75 13.75 12.5188 13.75 11C13.75 9.48122 12.5188 8.25 11 8.25C9.48122 8.25 8.25 9.48122 8.25 11C8.25 12.5188 9.48122 13.75 11 13.75Z" stroke="#F6B83D" stroke-width="2" stroke-linecap="round" stroke-linejoin="round" />
  </g>
  
</symbol>
</svg>